<svg width="115" height="17" viewBox="0 0 115 17" fill="none" xmlns="http://www.w3.org/2000/svg">
<path d="M33.002 0L35.128 6.494H42.005L36.441 10.506L38.566 17L33.002 12.987L27.438 17L29.564 10.506L24 6.494H30.878L33.002 0Z" fill="#81B3D2"/>
<path d="M9.002 0L11.128 6.494H18.005L12.441 10.506L14.566 17L9.002 12.987L3.438 17L5.564 10.506L0 6.494H6.878L9.002 0Z" fill="#81B3D2"/>
<path d="M57.002 0L59.128 6.494H66.005L60.441 10.506L62.566 17L57.002 12.987L51.438 17L53.564 10.506L48 6.494H54.878L57.002 0Z" fill="#81B3D2"/>
<path d="M81.002 0L83.128 6.494H90.005L84.441 10.506L86.566 17L81.002 12.987L75.438 17L77.564 10.506L72 6.494H78.878L81.002 0Z" fill="#81B3D2"/>
<path d="M105.002 0L107.128 6.494H114.005L108.441 10.506L110.566 17L105.002 12.987L99.438 17L101.564 10.506L96 6.494H102.878L105.002 0Z" fill="#81B3D2"/>
</svg>
